<?xml version="1.0" standalone="no"?>
<!DOCTYPE svg PUBLIC "-//W3C//DTD SVG 20010904//EN"
 "http://www.w3.org/TR/2001/REC-SVG-20010904/DTD/svg10.dtd">
<svg version="1.0" xmlns="http://www.w3.org/2000/svg"
 width="512.000000pt" height="512.000000pt" viewBox="0 0 512.000000 512.000000"
 preserveAspectRatio="xMidYMid meet">

<g transform="translate(0.000000,512.000000) scale(0.100000,-0.100000)"
fill="#000000" stroke="none">
<path d="M827 5104 c-391 -71 -693 -354 -800 -749 l-22 -80 -2 -1674 c-4
-1808 -5 -1757 48 -1914 67 -200 212 -394 378 -506 92 -63 233 -127 337 -153
l89 -23 1700 0 c1620 0 1704 1 1780 19 371 85 663 372 757 742 l23 89 0 1077
0 1076 -30 43 c-83 117 -247 117 -330 0 l-30 -43 -5 -1061 c-5 -995 -6 -1065
-24 -1117 -32 -99 -79 -173 -156 -250 -86 -87 -162 -131 -276 -160 -75 -20
-117 -20 -1704 -20 -1587 0 -1629 0 -1704 20 -113 29 -190 73 -276 160 -87 86
-131 163 -160 276 -20 75 -20 117 -20 1704 0 1587 0 1629 20 1704 51 201 200
360 400 429 l65 22 1060 5 1060 5 38 24 c56 34 88 88 94 158 6 73 -23 134 -86
178 l-43 30 -1051 2 c-868 1 -1066 -1 -1130 -13z"/>
<path d="M4165 5034 c-150 -21 -256 -58 -368 -130 -57 -36 -305 -279 -1166
-1137 -601 -601 -1133 -1137 -1182 -1191 -198 -221 -324 -472 -381 -759 -17
-89 -22 -147 -22 -282 -1 -292 31 -394 139 -447 81 -40 409 -57 579 -29 317
51 578 179 823 401 59 54 595 585 1190 1181 1132 1135 1134 1137 1197 1287 85
202 80 450 -14 651 -100 213 -292 371 -522 430 -77 20 -217 33 -273 25z m147
-405 c208 -44 355 -249 320 -449 -26 -145 45 -68 -1220 -1331 -895 -895 -1174
-1168 -1232 -1206 -200 -133 -395 -195 -620 -197 l-115 -1 -3 65 c-8 149 36
353 107 506 85 180 88 183 1032 1129 l888 889 84 -82 c92 -90 133 -112 202
-112 58 0 102 19 142 61 40 43 53 77 53 140 0 68 -19 100 -114 197 l-81 83
127 125 c131 129 186 165 280 183 62 13 90 12 150 0z"/>
</g>
</svg>
