<?xml version="1.0" standalone="no"?>
<!DOCTYPE svg PUBLIC "-//W3C//DTD SVG 20010904//EN"
 "http://www.w3.org/TR/2001/REC-SVG-20010904/DTD/svg10.dtd">
<svg version="1.0" xmlns="http://www.w3.org/2000/svg"
 width="512.000000pt" height="512.000000pt" viewBox="0 0 512.000000 512.000000"
 preserveAspectRatio="xMidYMid meet">

<g transform="translate(0.000000,512.000000) scale(0.100000,-0.100000)"
fill="#000000" stroke="none">
<path d="M2065 5109 c-92 -18 -194 -76 -271 -153 -111 -111 -164 -236 -164
-393 l0 -73 -278 0 c-302 0 -356 -7 -441 -57 -107 -62 -188 -168 -215 -281
-14 -55 -17 -108 -14 -279 3 -195 5 -214 24 -239 41 -56 69 -69 159 -72 l83
-4 6 -61 c3 -34 49 -807 102 -1717 108 -1857 94 -1719 178 -1760 43 -20 46
-20 1339 -18 1291 3 1296 3 1323 24 15 11 37 32 48 47 19 25 26 131 122 1754
56 951 103 1729 103 1729 1 1 39 4 86 6 91 5 118 17 159 72 19 25 21 44 24
226 2 113 -1 224 -7 257 -33 176 -172 323 -342 362 -24 6 -169 11 -321 11
l-278 0 0 68 c0 83 -30 206 -66 273 -37 67 -122 159 -184 199 -28 18 -81 45
-118 59 l-67 26 -470 2 c-272 1 -491 -3 -520 -8z m960 -306 c100 -34 165 -134
165 -255 l0 -58 -630 0 -630 0 0 68 c0 115 65 211 166 247 31 11 128 14 460
15 366 0 427 -2 469 -17z m1036 -635 c60 -34 79 -82 79 -206 l0 -102 -1581 0
-1581 0 4 118 c3 102 6 121 25 148 49 68 -68 64 1552 64 l1463 0 39 -22z
m-195 -640 c-3 -18 -47 -752 -98 -1630 l-93 -1598 -1117 0 -1118 0 0 30 c0 41
-178 3068 -185 3158 l-7 72 1312 0 1311 0 -5 -32z"/>
<path d="M1792 3243 c-44 -21 -74 -66 -79 -116 -2 -23 19 -573 47 -1221 55
-1282 50 -1223 112 -1268 74 -52 179 -24 218 57 l20 42 -51 1199 c-57 1353
-48 1262 -133 1303 -51 25 -90 26 -134 4z"/>
<path d="M2492 3243 c-18 -9 -43 -30 -55 -47 l-22 -31 -3 -1218 c-2 -1111 -1
-1222 14 -1253 52 -110 211 -109 264 1 20 41 20 62 20 1240 0 1178 0 1199 -20
1240 -36 74 -125 104 -198 68z"/>
<path d="M3192 3243 c-58 -29 -74 -63 -83 -182 -5 -58 -29 -606 -55 -1217 -45
-1068 -46 -1112 -29 -1148 53 -111 212 -112 264 -2 18 38 24 139 70 1240 l51
1199 -20 42 c-36 74 -124 105 -198 68z"/>
</g>
</svg>
